# xmcd CD database file
#
# Track frame offsets:
#	150
#	13940
#	26050
#	38487
#	49537
#	62950
#	76150
#	89345
#	102732
#	115215
#	129100
#	143355
#	156777
#	169977
#	181325
#	193730
#	205552
#	217272
#	229335
#	240945
#	252460
#
# Disc length: 3509 seconds
#
# Revision: 0
# Processed by: cddbd v1.5.2PL0 Copyright (c) Steve Scherf et al.
# Submitted via: CDex 1.70beta2
#
DISCID=1e0db315
DTITLE=Johnny Dodds - Jazz Archives No. 17
DYEAR=1987
DGENRE=Jazz
TTITLE0=Lovie Austin's Serenaders - Jackass Blues (Kassel-Stitzel)
TTITLE1=Lovie Austin's Serenaders - Frog Tongue Stomp (Austin)
TTITLE2=Blythe's Washboard Band - Bohunkus Blues (Blythe-Stevens)
TTITLE3=Blythe's Washboard Band - Buddy Burton's Jazz (Burton)
TTITLE4=Jimme Blythe And His Ragmuffins - Messin' Around (take-1)(Parham)
TTITLE5=Jimme Blythe And His Ragmuffins - Messin' Around (take-2)(Parham)
TTITLE6=Jimme Blythe And His Ragmuffins - Adam's Apple (Blythe)
TTITLE7=Junie Cobb's Hometown Band - East Coast Trot (Blythe-Stevens)
TTITLE8=Junie Cobb's Hometown Band - Chicago Buzz (Blythe-Stevens)
TTITLE9=Lovie Austin's Serenaders - Chicago Mess Around (Austin)
TTITLE10=Lovie Austin's Serenaders - Galion Stomp (Austin)
TTITLE11=Lovie Austin's Serenaders - In The Alley Blues (Austin)
TTITLE12=Lovie Austin's Serenaders - Merry Makers Twine (Nelson-Mack)
TTITLE13=Freddie Keppard's Jazz Cardinals - Stock Yards Strut (Taylor)
TTITLE14=Freddie Keppard's Jazz Cardinals - Salty Dog (take-1)(Jackson)
TTITLE15=Freddie Keppard's Jazz Cardinals - Salty Dog (take-2)(Jackson)
TTITLE16=Blythe's Washboard Ragamuffins - Ape Man (Blythe)
TTITLE17=Blythe's Washboard Ragamuffins - Your Folks (Blythe)
TTITLE18=Jasper Taylor And His State Street Boys - Stomp Time Blues (Parham)
TTITLE19=Jasper Taylor And His State Street Boys - It Must Be The Blues (Parham)
TTITLE20=Dodds And Parham - Oh Daddy (Russel-Herbert)
EXTD=YEAR: 1987
EXTT0=
EXTT1=
EXTT2=
EXTT3=
EXTT4=
EXTT5=
EXTT6=
EXTT7=
EXTT8=
EXTT9=
EXTT10=
EXTT11=
EXTT12=
EXTT13=
EXTT14=
EXTT15=
EXTT16=
EXTT17=
EXTT18=
EXTT19=
EXTT20=
PLAYORDER=
